<svg xmlns="http://www.w3.org/2000/svg" width="300" height="300" class="bubble"><defs><pattern id="hash-warning" patternUnits="userSpaceOnUse" width="4" height="4"><path d="M-1,1 l2,-2 M0,4 l4,-4 M3,5 l2,-2" stroke="#000000" stroke-width="1"/></pattern><pattern id="hash-critical" patternUnits="userSpaceOnUse" width="4" height="4"><path d="M-1,1 l2,-2 M0,4 l4,-4 M3,5 l2,-2" stroke="#000000" stroke-width="3"/></pattern><pattern id="hash-good" patternUnits="userSpaceOnUse" width="5" height="5"><circle cx="2" cy="2" r="2" style="stroke:none;fill:#eee"/></pattern></defs><g class="node"><circle r="22.946674528220033" x="44917.54721325049" y="56044.175416024744" transform="translate(150.22256593060365,187.4353692843637)" style="fill: rgb(120, 186, 0); stroke-width: 0; stroke: rgb(0, 0, 0);"/></g><g class="node"><circle r="29.025502494297996" x="60895.13088200009" y="56044.175416024744" transform="translate(203.65930060869596,187.4353692843637)" style="fill: rgb(120, 186, 0); stroke-width: 0; stroke: rgb(0, 0, 0);"/></g><g class="node"><circle r="25.13682251767065" x="51117.655981718104" y="42589.10292803648" transform="translate(170.9587156579201,142.43512684962033)" style="fill: rgb(120, 186, 0); stroke-width: 0; stroke: rgb(0, 0, 0);"/></g><g class="node"><circle r="14.512751247148998" x="39269.89695157868" y="45868.05633955181" transform="translate(131.33410351698555,153.4015262192368)" style="fill: rgb(120, 186, 0); stroke-width: 0; stroke: rgb(0, 0, 0);"/></g><g class="node"><circle r="14.512751247148998" x="33668.21603609557" y="53060.57004610595" transform="translate(112.59938473610558,177.4567560070433)" style="fill: rgb(120, 186, 0); stroke-width: 0; stroke: rgb(0, 0, 0);"/></g><g class="node"><circle r="14.512751247148998" x="34969.07153912929" y="62083.809899843836" transform="translate(116.9500720372217,207.63481571854126)" style="fill: rgb(120, 186, 0); stroke-width: 0; stroke: rgb(0, 0, 0);"/></g><g class="node"><circle r="14.512751247148998" x="42374.26467503531" y="67401.1585923585" transform="translate(141.71660426433212,225.41859060989464)" style="fill: rgb(120, 186, 0); stroke-width: 0; stroke: rgb(0, 0, 0);"/></g><g class="node"><circle r="14.512751247148998" x="51340.00395063174" y="65749.9161086862" transform="translate(171.70235434993893,219.89604049727825)" style="fill: rgb(120, 186, 0); stroke-width: 0; stroke: rgb(0, 0, 0);"/></g><g class="node"><circle r="14.512751247148998" x="59674.328746093284" y="69444.52200128311" transform="translate(199.57635032138222,232.25258194409068)" style="fill: rgb(120, 186, 0); stroke-width: 0; stroke: rgb(0, 0, 0);"/></g><g class="node"><circle r="22.946674528220033" x="71247.4042630336" y="68214.36915878163" transform="translate(238.28228850512912,228.138358390574)" style="fill: rgb(120, 186, 0); stroke-width: 0; stroke: rgb(0, 0, 0);"/></g><g class="node"><circle r="14.512751247148998" x="74317.80035864815" y="56988.41615902464" transform="translate(248.55117176805402,190.59336508034994)" style="fill: rgb(120, 186, 0); stroke-width: 0; stroke: rgb(0, 0, 0);"/></g><g class="node"><circle r="17.77441765972762" x="72231.74556512844" y="47114.60629225627" transform="translate(241.57439988337273,157.57058960620824)" style="fill: rgb(120, 186, 0); stroke-width: 0; stroke: rgb(0, 0, 0);"/></g><g class="node"><circle r="51.310324102662904" x="67929.99597287625" y="26463.651500453165" transform="translate(227.18727750125834,88.50385117208417)" style="fill: rgb(244, 179, 0); stroke-width: 0; stroke: rgb(0, 0, 0);"/></g><g class="node"><circle r="17.77441765972762" x="47123.54153343878" y="29936.17753018289" transform="translate(157.60047335598253,100.11765060261835)" style="fill: rgb(120, 186, 0); stroke-width: 0; stroke: rgb(0, 0, 0);"/></g><g class="node"><circle r="22.946674528220033" x="35508.39500792923" y="34854.407713204615" transform="translate(118.7538294579573,116.56658098061743)" style="fill: rgb(120, 186, 0); stroke-width: 0; stroke: rgb(0, 0, 0);"/></g><g class="node"><circle r="41.048259282130324" x="18703.646645784524" y="44888.29043547134" transform="translate(62.550657678209106,150.12471717548942)" style="fill: rgb(244, 179, 0); stroke-width: 0; stroke: rgb(0, 0, 0);"/></g><g class="node"><circle r="14.512751247148998" x="26032.026800477477" y="60283.722724956766" transform="translate(87.06029030260027,201.6144572741029)" style="fill: rgb(120, 186, 0); stroke-width: 0; stroke: rgb(0, 0, 0);"/></g><g class="node"><circle r="14.512751247148998" x="28941.627947324625" y="68923.47409083083" transform="translate(96.79139781713921,230.50994679207636)" style="fill: rgb(120, 186, 0); stroke-width: 0; stroke: rgb(0, 0, 0);"/></g><g class="node"><circle r="14.512751247148998" x="36346.82108323064" y="74240.8227833455" transform="translate(121.55793004424963,248.29372168342974)" style="fill: rgb(120, 186, 0); stroke-width: 0; stroke: rgb(0, 0, 0);"/></g></svg>